<mxfile host="app.diagrams.net" modified="2023-09-07T15:38:04.245Z" agent="Mozilla/5.0 (Windows NT 10.0; Win64; x64) AppleWebKit/537.36 (KHTML, like Gecko) Chrome/116.0.0.0 Safari/537.36" etag="y7fJhcdXd0HPSRqBCYQz" version="21.7.2" type="github">
  <diagram name="Página-1" id="TrdM3WzuNy0MCiwsJbyF">
    <mxGraphModel dx="2219" dy="932" grid="1" gridSize="10" guides="1" tooltips="1" connect="1" arrows="1" fold="1" page="1" pageScale="1" pageWidth="2400" pageHeight="1600" math="0" shadow="0">
      <root>
        <mxCell id="0" />
        <mxCell id="1" parent="0" />
        <mxCell id="dWiLZQFSB1augytXqu6K-1" value="Registrar, aprobar y anular A3 servicios complementarios" style="swimlane;childLayout=stackLayout;resizeParent=1;resizeParentMax=0;horizontal=1;startSize=20;horizontalStack=0;html=1;" parent="1" vertex="1">
          <mxGeometry x="20" y="20" width="2350" height="1520" as="geometry" />
        </mxCell>
        <mxCell id="xjQJxT_6Q9AMiEBjkDGa-80" value="Anular" style="edgeStyle=orthogonalEdgeStyle;rounded=0;orthogonalLoop=1;jettySize=auto;html=1;entryX=0;entryY=0.5;entryDx=0;entryDy=0;entryPerimeter=0;" edge="1" parent="dWiLZQFSB1augytXqu6K-1" source="xjQJxT_6Q9AMiEBjkDGa-25" target="xjQJxT_6Q9AMiEBjkDGa-47">
          <mxGeometry x="0.6587" relative="1" as="geometry">
            <Array as="points">
              <mxPoint x="1195" y="1263" />
            </Array>
            <mxPoint y="1" as="offset" />
          </mxGeometry>
        </mxCell>
        <mxCell id="dWiLZQFSB1augytXqu6K-2" value="&lt;font style=&quot;vertical-align: inherit;&quot;&gt;&lt;font style=&quot;vertical-align: inherit;&quot;&gt;Ingresar a ZonaSer Prestador&lt;br&gt;&lt;/font&gt;&lt;/font&gt;" style="swimlane;startSize=20;horizontal=0;html=1;" parent="dWiLZQFSB1augytXqu6K-1" vertex="1">
          <mxGeometry y="20" width="2350" height="200" as="geometry" />
        </mxCell>
        <mxCell id="dWiLZQFSB1augytXqu6K-60" style="edgeStyle=orthogonalEdgeStyle;rounded=0;orthogonalLoop=1;jettySize=auto;html=1;entryX=0;entryY=0.5;entryDx=0;entryDy=0;entryPerimeter=0;" parent="dWiLZQFSB1augytXqu6K-2" source="dWiLZQFSB1augytXqu6K-4" target="xjQJxT_6Q9AMiEBjkDGa-3" edge="1">
          <mxGeometry relative="1" as="geometry">
            <mxPoint x="140" y="92.5" as="targetPoint" />
          </mxGeometry>
        </mxCell>
        <mxCell id="dWiLZQFSB1augytXqu6K-4" value="" style="points=[[0.145,0.145,0],[0.5,0,0],[0.855,0.145,0],[1,0.5,0],[0.855,0.855,0],[0.5,1,0],[0.145,0.855,0],[0,0.5,0]];shape=mxgraph.bpmn.event;html=1;verticalLabelPosition=bottom;labelBackgroundColor=#ffffff;verticalAlign=top;align=center;perimeter=ellipsePerimeter;outlineConnect=0;aspect=fixed;outline=standard;symbol=general;fillColor=#f8cecc;strokeColor=#b85450;" parent="dWiLZQFSB1augytXqu6K-2" vertex="1">
          <mxGeometry x="50" y="67.5" width="50" height="50" as="geometry" />
        </mxCell>
        <mxCell id="xjQJxT_6Q9AMiEBjkDGa-5" style="edgeStyle=orthogonalEdgeStyle;rounded=0;orthogonalLoop=1;jettySize=auto;html=1;" edge="1" parent="dWiLZQFSB1augytXqu6K-2" source="xjQJxT_6Q9AMiEBjkDGa-3" target="s6yNH1CqrP5aNpvl8j8D-69">
          <mxGeometry relative="1" as="geometry">
            <mxPoint x="290" y="92.5" as="targetPoint" />
          </mxGeometry>
        </mxCell>
        <mxCell id="xjQJxT_6Q9AMiEBjkDGa-3" value="Ingresar a ZonaSer Prestador" style="points=[[0.25,0,0],[0.5,0,0],[0.75,0,0],[1,0.25,0],[1,0.5,0],[1,0.75,0],[0.75,1,0],[0.5,1,0],[0.25,1,0],[0,0.75,0],[0,0.5,0],[0,0.25,0]];shape=mxgraph.bpmn.task;whiteSpace=wrap;rectStyle=rounded;size=10;html=1;container=1;expand=0;collapsible=0;taskMarker=user;fillColor=#fff2cc;strokeColor=#d6b656;" vertex="1" parent="dWiLZQFSB1augytXqu6K-2">
          <mxGeometry x="130" y="52.5" width="120" height="80" as="geometry" />
        </mxCell>
        <mxCell id="s6yNH1CqrP5aNpvl8j8D-69" value="" style="points=[[0.25,0.25,0],[0.5,0,0],[0.75,0.25,0],[1,0.5,0],[0.75,0.75,0],[0.5,1,0],[0.25,0.75,0],[0,0.5,0]];shape=mxgraph.bpmn.gateway2;html=1;verticalLabelPosition=bottom;labelBackgroundColor=#ffffff;verticalAlign=top;align=center;perimeter=rhombusPerimeter;outlineConnect=0;outline=eventInt;symbol=multiple;" parent="dWiLZQFSB1augytXqu6K-2" vertex="1">
          <mxGeometry x="290" y="67.5" width="50" height="50" as="geometry" />
        </mxCell>
        <mxCell id="xjQJxT_6Q9AMiEBjkDGa-33" value="" style="points=[[0.145,0.145,0],[0.5,0,0],[0.855,0.145,0],[1,0.5,0],[0.855,0.855,0],[0.5,1,0],[0.145,0.855,0],[0,0.5,0]];shape=mxgraph.bpmn.event;html=1;verticalLabelPosition=bottom;labelBackgroundColor=#ffffff;verticalAlign=top;align=center;perimeter=ellipsePerimeter;outlineConnect=0;aspect=fixed;outline=end;symbol=terminate;fillColor=#f8cecc;strokeColor=#b85450;" vertex="1" parent="dWiLZQFSB1augytXqu6K-2">
          <mxGeometry x="2180" y="70" width="50" height="50" as="geometry" />
        </mxCell>
        <mxCell id="s6yNH1CqrP5aNpvl8j8D-2" value="&lt;font style=&quot;vertical-align: inherit;&quot;&gt;&lt;font style=&quot;vertical-align: inherit;&quot;&gt;Crear A3&lt;/font&gt;&lt;/font&gt;" style="swimlane;startSize=20;horizontal=0;html=1;" parent="dWiLZQFSB1augytXqu6K-1" vertex="1">
          <mxGeometry y="220" width="2350" height="340" as="geometry" />
        </mxCell>
        <mxCell id="s6yNH1CqrP5aNpvl8j8D-5" value="Si" style="edgeStyle=orthogonalEdgeStyle;rounded=0;orthogonalLoop=1;jettySize=auto;html=1;" parent="s6yNH1CqrP5aNpvl8j8D-2" source="s6yNH1CqrP5aNpvl8j8D-7" target="xjQJxT_6Q9AMiEBjkDGa-29" edge="1">
          <mxGeometry x="-0.2" relative="1" as="geometry">
            <mxPoint as="offset" />
            <mxPoint x="1090" y="60" as="targetPoint" />
          </mxGeometry>
        </mxCell>
        <mxCell id="s6yNH1CqrP5aNpvl8j8D-6" value="No" style="edgeStyle=orthogonalEdgeStyle;rounded=0;orthogonalLoop=1;jettySize=auto;html=1;" parent="s6yNH1CqrP5aNpvl8j8D-2" source="s6yNH1CqrP5aNpvl8j8D-7" target="s6yNH1CqrP5aNpvl8j8D-8" edge="1">
          <mxGeometry x="0.3514" relative="1" as="geometry">
            <mxPoint as="offset" />
          </mxGeometry>
        </mxCell>
        <mxCell id="s6yNH1CqrP5aNpvl8j8D-7" value="&lt;font style=&quot;font-size: 10px;&quot;&gt;Servicio 890, 896 o &lt;br&gt;899&lt;/font&gt;" style="points=[[0.25,0.25,0],[0.5,0,0],[0.75,0.25,0],[1,0.5,0],[0.75,0.75,0],[0.5,1,0],[0.25,0.75,0],[0,0.5,0]];shape=mxgraph.bpmn.gateway2;html=1;verticalLabelPosition=bottom;labelBackgroundColor=#ffffff;verticalAlign=top;align=center;perimeter=rhombusPerimeter;outlineConnect=0;outline=none;symbol=none;fillColor=#d5e8d4;strokeColor=#82b366;" parent="s6yNH1CqrP5aNpvl8j8D-2" vertex="1">
          <mxGeometry x="990" y="35" width="50" height="50" as="geometry" />
        </mxCell>
        <mxCell id="s6yNH1CqrP5aNpvl8j8D-8" value="" style="points=[[0.145,0.145,0],[0.5,0,0],[0.855,0.145,0],[1,0.5,0],[0.855,0.855,0],[0.5,1,0],[0.145,0.855,0],[0,0.5,0]];shape=mxgraph.bpmn.event;html=1;verticalLabelPosition=bottom;labelBackgroundColor=#ffffff;verticalAlign=top;align=center;perimeter=ellipsePerimeter;outlineConnect=0;aspect=fixed;outline=end;symbol=terminate2;fillColor=#f8cecc;strokeColor=#b85450;" parent="s6yNH1CqrP5aNpvl8j8D-2" vertex="1">
          <mxGeometry x="990" y="185" width="50" height="50" as="geometry" />
        </mxCell>
        <mxCell id="s6yNH1CqrP5aNpvl8j8D-18" style="edgeStyle=orthogonalEdgeStyle;rounded=0;orthogonalLoop=1;jettySize=auto;html=1;" parent="s6yNH1CqrP5aNpvl8j8D-2" source="xjQJxT_6Q9AMiEBjkDGa-9" target="s6yNH1CqrP5aNpvl8j8D-21" edge="1">
          <mxGeometry relative="1" as="geometry">
            <mxPoint x="1060" y="67.5" as="sourcePoint" />
          </mxGeometry>
        </mxCell>
        <mxCell id="s6yNH1CqrP5aNpvl8j8D-20" style="edgeStyle=orthogonalEdgeStyle;rounded=0;orthogonalLoop=1;jettySize=auto;html=1;entryX=0;entryY=0.5;entryDx=0;entryDy=0;entryPerimeter=0;" parent="s6yNH1CqrP5aNpvl8j8D-2" source="s6yNH1CqrP5aNpvl8j8D-21" target="s6yNH1CqrP5aNpvl8j8D-7" edge="1">
          <mxGeometry relative="1" as="geometry" />
        </mxCell>
        <mxCell id="s6yNH1CqrP5aNpvl8j8D-21" value="" style="points=[[0.145,0.145,0],[0.5,0,0],[0.855,0.145,0],[1,0.5,0],[0.855,0.855,0],[0.5,1,0],[0.145,0.855,0],[0,0.5,0]];shape=mxgraph.bpmn.event;html=1;verticalLabelPosition=bottom;labelBackgroundColor=#ffffff;verticalAlign=top;align=center;perimeter=ellipsePerimeter;outlineConnect=0;aspect=fixed;outline=throwing;symbol=general;fillColor=#f8cecc;strokeColor=#b85450;" parent="s6yNH1CqrP5aNpvl8j8D-2" vertex="1">
          <mxGeometry x="910" y="40" width="40" height="40" as="geometry" />
        </mxCell>
        <mxCell id="s6yNH1CqrP5aNpvl8j8D-22" value="&lt;font style=&quot;font-size: 10px;&quot;&gt;Clic botón guardar&lt;/font&gt;" style="text;html=1;strokeColor=none;fillColor=none;align=center;verticalAlign=middle;whiteSpace=wrap;rounded=0;" parent="s6yNH1CqrP5aNpvl8j8D-2" vertex="1">
          <mxGeometry x="900" y="115" width="60" height="30" as="geometry" />
        </mxCell>
        <mxCell id="s6yNH1CqrP5aNpvl8j8D-23" style="edgeStyle=orthogonalEdgeStyle;rounded=0;orthogonalLoop=1;jettySize=auto;html=1;" parent="s6yNH1CqrP5aNpvl8j8D-2" source="s6yNH1CqrP5aNpvl8j8D-21" target="s6yNH1CqrP5aNpvl8j8D-22" edge="1">
          <mxGeometry relative="1" as="geometry" />
        </mxCell>
        <mxCell id="s6yNH1CqrP5aNpvl8j8D-24" style="edgeStyle=orthogonalEdgeStyle;rounded=0;orthogonalLoop=1;jettySize=auto;html=1;exitX=1;exitY=0.5;exitDx=0;exitDy=0;exitPerimeter=0;" parent="s6yNH1CqrP5aNpvl8j8D-2" source="xjQJxT_6Q9AMiEBjkDGa-29" target="s6yNH1CqrP5aNpvl8j8D-29" edge="1">
          <mxGeometry relative="1" as="geometry">
            <mxPoint x="1315" y="61.25" as="sourcePoint" />
          </mxGeometry>
        </mxCell>
        <mxCell id="s6yNH1CqrP5aNpvl8j8D-26" style="edgeStyle=orthogonalEdgeStyle;rounded=0;orthogonalLoop=1;jettySize=auto;html=1;entryX=0;entryY=0.5;entryDx=0;entryDy=0;entryPerimeter=0;" parent="s6yNH1CqrP5aNpvl8j8D-2" source="s6yNH1CqrP5aNpvl8j8D-29" target="xjQJxT_6Q9AMiEBjkDGa-35" edge="1">
          <mxGeometry relative="1" as="geometry">
            <mxPoint x="1340" y="60" as="targetPoint" />
          </mxGeometry>
        </mxCell>
        <mxCell id="s6yNH1CqrP5aNpvl8j8D-27" value="Si" style="edgeLabel;html=1;align=center;verticalAlign=middle;resizable=0;points=[];" parent="s6yNH1CqrP5aNpvl8j8D-26" vertex="1" connectable="0">
          <mxGeometry x="-0.1789" relative="1" as="geometry">
            <mxPoint y="1" as="offset" />
          </mxGeometry>
        </mxCell>
        <mxCell id="xjQJxT_6Q9AMiEBjkDGa-31" value="No" style="edgeStyle=orthogonalEdgeStyle;rounded=0;orthogonalLoop=1;jettySize=auto;html=1;" edge="1" parent="s6yNH1CqrP5aNpvl8j8D-2" source="s6yNH1CqrP5aNpvl8j8D-29" target="xjQJxT_6Q9AMiEBjkDGa-30">
          <mxGeometry relative="1" as="geometry">
            <Array as="points">
              <mxPoint x="1275" y="185" />
            </Array>
          </mxGeometry>
        </mxCell>
        <mxCell id="s6yNH1CqrP5aNpvl8j8D-29" value="&lt;font style=&quot;font-size: 10px;&quot;&gt;Usuario con&lt;br&gt;rol 10&lt;/font&gt;" style="points=[[0.25,0.25,0],[0.5,0,0],[0.75,0.25,0],[1,0.5,0],[0.75,0.75,0],[0.5,1,0],[0.25,0.75,0],[0,0.5,0]];shape=mxgraph.bpmn.gateway2;html=1;verticalLabelPosition=bottom;labelBackgroundColor=#ffffff;verticalAlign=top;align=center;perimeter=rhombusPerimeter;outlineConnect=0;outline=none;symbol=none;fillColor=#d5e8d4;strokeColor=#82b366;" parent="s6yNH1CqrP5aNpvl8j8D-2" vertex="1">
          <mxGeometry x="1250" y="35" width="50" height="50" as="geometry" />
        </mxCell>
        <mxCell id="xjQJxT_6Q9AMiEBjkDGa-8" style="edgeStyle=orthogonalEdgeStyle;rounded=0;orthogonalLoop=1;jettySize=auto;html=1;" edge="1" parent="s6yNH1CqrP5aNpvl8j8D-2" source="xjQJxT_6Q9AMiEBjkDGa-6" target="xjQJxT_6Q9AMiEBjkDGa-7">
          <mxGeometry relative="1" as="geometry" />
        </mxCell>
        <mxCell id="xjQJxT_6Q9AMiEBjkDGa-6" value="Ingresar al modulo de &quot;Atención al Usuario&quot;" style="points=[[0.25,0,0],[0.5,0,0],[0.75,0,0],[1,0.25,0],[1,0.5,0],[1,0.75,0],[0.75,1,0],[0.5,1,0],[0.25,1,0],[0,0.75,0],[0,0.5,0],[0,0.25,0]];shape=mxgraph.bpmn.task;whiteSpace=wrap;rectStyle=rounded;size=10;html=1;container=1;expand=0;collapsible=0;taskMarker=manual;fillColor=#fff2cc;strokeColor=#d6b656;" vertex="1" parent="s6yNH1CqrP5aNpvl8j8D-2">
          <mxGeometry x="450" y="20" width="120" height="80" as="geometry" />
        </mxCell>
        <mxCell id="xjQJxT_6Q9AMiEBjkDGa-10" style="edgeStyle=orthogonalEdgeStyle;rounded=0;orthogonalLoop=1;jettySize=auto;html=1;" edge="1" parent="s6yNH1CqrP5aNpvl8j8D-2" source="xjQJxT_6Q9AMiEBjkDGa-7" target="xjQJxT_6Q9AMiEBjkDGa-9">
          <mxGeometry relative="1" as="geometry" />
        </mxCell>
        <mxCell id="xjQJxT_6Q9AMiEBjkDGa-7" value="Seleccionar prestador y afiliado de la solicitud que desea crear" style="points=[[0.25,0,0],[0.5,0,0],[0.75,0,0],[1,0.25,0],[1,0.5,0],[1,0.75,0],[0.75,1,0],[0.5,1,0],[0.25,1,0],[0,0.75,0],[0,0.5,0],[0,0.25,0]];shape=mxgraph.bpmn.task;whiteSpace=wrap;rectStyle=rounded;size=10;html=1;container=1;expand=0;collapsible=0;taskMarker=manual;fillColor=#fff2cc;strokeColor=#d6b656;" vertex="1" parent="s6yNH1CqrP5aNpvl8j8D-2">
          <mxGeometry x="600" y="20" width="120" height="80" as="geometry" />
        </mxCell>
        <mxCell id="xjQJxT_6Q9AMiEBjkDGa-9" value="Diligenciar formulario de creación de A3" style="points=[[0.25,0,0],[0.5,0,0],[0.75,0,0],[1,0.25,0],[1,0.5,0],[1,0.75,0],[0.75,1,0],[0.5,1,0],[0.25,1,0],[0,0.75,0],[0,0.5,0],[0,0.25,0]];shape=mxgraph.bpmn.task;whiteSpace=wrap;rectStyle=rounded;size=10;html=1;container=1;expand=0;collapsible=0;taskMarker=manual;fillColor=#fff2cc;strokeColor=#d6b656;" vertex="1" parent="s6yNH1CqrP5aNpvl8j8D-2">
          <mxGeometry x="750" y="20" width="120" height="80" as="geometry" />
        </mxCell>
        <mxCell id="xjQJxT_6Q9AMiEBjkDGa-29" value="Validar rol de usuario que esta intentando registrar la solicitud" style="points=[[0.25,0,0],[0.5,0,0],[0.75,0,0],[1,0.25,0],[1,0.5,0],[1,0.75,0],[0.75,1,0],[0.5,1,0],[0.25,1,0],[0,0.75,0],[0,0.5,0],[0,0.25,0]];shape=mxgraph.bpmn.task;whiteSpace=wrap;rectStyle=rounded;size=10;html=1;container=1;expand=0;collapsible=0;taskMarker=service;fillColor=#fff2cc;strokeColor=#d6b656;" vertex="1" parent="s6yNH1CqrP5aNpvl8j8D-2">
          <mxGeometry x="1090" y="20" width="120" height="80" as="geometry" />
        </mxCell>
        <mxCell id="xjQJxT_6Q9AMiEBjkDGa-76" style="edgeStyle=orthogonalEdgeStyle;rounded=0;orthogonalLoop=1;jettySize=auto;html=1;" edge="1" parent="s6yNH1CqrP5aNpvl8j8D-2" source="xjQJxT_6Q9AMiEBjkDGa-30" target="xjQJxT_6Q9AMiEBjkDGa-75">
          <mxGeometry relative="1" as="geometry" />
        </mxCell>
        <mxCell id="xjQJxT_6Q9AMiEBjkDGa-30" value="No permite crear el A3 de servicios complementarios" style="points=[[0.25,0,0],[0.5,0,0],[0.75,0,0],[1,0.25,0],[1,0.5,0],[1,0.75,0],[0.75,1,0],[0.5,1,0],[0.25,1,0],[0,0.75,0],[0,0.5,0],[0,0.25,0]];shape=mxgraph.bpmn.task;whiteSpace=wrap;rectStyle=rounded;size=10;html=1;container=1;expand=0;collapsible=0;taskMarker=service;fillColor=#fff2cc;strokeColor=#d6b656;" vertex="1" parent="s6yNH1CqrP5aNpvl8j8D-2">
          <mxGeometry x="1350" y="145" width="120" height="80" as="geometry" />
        </mxCell>
        <mxCell id="xjQJxT_6Q9AMiEBjkDGa-34" value="" style="points=[[0.25,0.25,0],[0.5,0,0],[0.75,0.25,0],[1,0.5,0],[0.75,0.75,0],[0.5,1,0],[0.25,0.75,0],[0,0.5,0]];shape=mxgraph.bpmn.gateway2;html=1;verticalLabelPosition=bottom;labelBackgroundColor=#ffffff;verticalAlign=top;align=center;perimeter=rhombusPerimeter;outlineConnect=0;outline=end;symbol=general;fillColor=#d5e8d4;strokeColor=#82b366;" vertex="1" parent="s6yNH1CqrP5aNpvl8j8D-2">
          <mxGeometry x="1650" y="95" width="50" height="50" as="geometry" />
        </mxCell>
        <mxCell id="xjQJxT_6Q9AMiEBjkDGa-38" style="edgeStyle=orthogonalEdgeStyle;rounded=0;orthogonalLoop=1;jettySize=auto;html=1;entryX=0.5;entryY=0;entryDx=0;entryDy=0;entryPerimeter=0;" edge="1" parent="s6yNH1CqrP5aNpvl8j8D-2" source="xjQJxT_6Q9AMiEBjkDGa-35" target="xjQJxT_6Q9AMiEBjkDGa-34">
          <mxGeometry relative="1" as="geometry" />
        </mxCell>
        <mxCell id="xjQJxT_6Q9AMiEBjkDGa-35" value="Crear A3 de servicios complementarios en estado PENDIENTE" style="points=[[0.25,0,0],[0.5,0,0],[0.75,0,0],[1,0.25,0],[1,0.5,0],[1,0.75,0],[0.75,1,0],[0.5,1,0],[0.25,1,0],[0,0.75,0],[0,0.5,0],[0,0.25,0]];shape=mxgraph.bpmn.task;whiteSpace=wrap;rectStyle=rounded;size=10;html=1;container=1;expand=0;collapsible=0;taskMarker=service;fillColor=#fff2cc;strokeColor=#d6b656;" vertex="1" parent="s6yNH1CqrP5aNpvl8j8D-2">
          <mxGeometry x="1350" y="20" width="120" height="80" as="geometry" />
        </mxCell>
        <mxCell id="xjQJxT_6Q9AMiEBjkDGa-77" style="edgeStyle=orthogonalEdgeStyle;rounded=0;orthogonalLoop=1;jettySize=auto;html=1;entryX=0.5;entryY=1;entryDx=0;entryDy=0;entryPerimeter=0;" edge="1" parent="s6yNH1CqrP5aNpvl8j8D-2" source="xjQJxT_6Q9AMiEBjkDGa-75" target="xjQJxT_6Q9AMiEBjkDGa-34">
          <mxGeometry relative="1" as="geometry" />
        </mxCell>
        <mxCell id="xjQJxT_6Q9AMiEBjkDGa-79" style="edgeStyle=orthogonalEdgeStyle;rounded=0;orthogonalLoop=1;jettySize=auto;html=1;dashed=1;" edge="1" parent="s6yNH1CqrP5aNpvl8j8D-2" source="xjQJxT_6Q9AMiEBjkDGa-75" target="xjQJxT_6Q9AMiEBjkDGa-78">
          <mxGeometry relative="1" as="geometry" />
        </mxCell>
        <mxCell id="xjQJxT_6Q9AMiEBjkDGa-75" value="Mostrar mensaje en pantalla" style="points=[[0.25,0,0],[0.5,0,0],[0.75,0,0],[1,0.25,0],[1,0.5,0],[1,0.75,0],[0.75,1,0],[0.5,1,0],[0.25,1,0],[0,0.75,0],[0,0.5,0],[0,0.25,0]];shape=mxgraph.bpmn.task;whiteSpace=wrap;rectStyle=rounded;size=10;html=1;container=1;expand=0;collapsible=0;taskMarker=send;fillColor=#fff2cc;strokeColor=#d6b656;" vertex="1" parent="s6yNH1CqrP5aNpvl8j8D-2">
          <mxGeometry x="1510" y="145" width="120" height="80" as="geometry" />
        </mxCell>
        <mxCell id="xjQJxT_6Q9AMiEBjkDGa-78" value="&lt;p data-pm-slice=&quot;1 1 [&amp;quot;table&amp;quot;,{&amp;quot;isNumberColumnEnabled&amp;quot;:false,&amp;quot;layout&amp;quot;:&amp;quot;wide&amp;quot;,&amp;quot;__autoSize&amp;quot;:false,&amp;quot;localId&amp;quot;:&amp;quot;922ff2e6-c428-4bf7-b1dc-2d80d05656cd&amp;quot;},&amp;quot;tableRow&amp;quot;,{},&amp;quot;tableCell&amp;quot;,{&amp;quot;colspan&amp;quot;:1,&amp;quot;rowspan&amp;quot;:1,&amp;quot;colwidth&amp;quot;:[471],&amp;quot;background&amp;quot;:null}]&quot;&gt;&lt;em&gt;“Sr. Usuario usted no tiene permisos para realizar esta acción.”&lt;/em&gt;&lt;/p&gt;" style="text;html=1;strokeColor=none;fillColor=none;align=center;verticalAlign=middle;whiteSpace=wrap;rounded=0;" vertex="1" parent="s6yNH1CqrP5aNpvl8j8D-2">
          <mxGeometry x="1470" y="270" width="200" height="30" as="geometry" />
        </mxCell>
        <mxCell id="s6yNH1CqrP5aNpvl8j8D-70" value="Consultar A3" style="swimlane;startSize=20;horizontal=0;html=1;" parent="dWiLZQFSB1augytXqu6K-1" vertex="1">
          <mxGeometry y="560" width="2350" height="320" as="geometry" />
        </mxCell>
        <mxCell id="s6yNH1CqrP5aNpvl8j8D-111" style="edgeStyle=orthogonalEdgeStyle;rounded=0;orthogonalLoop=1;jettySize=auto;html=1;" parent="s6yNH1CqrP5aNpvl8j8D-70" source="s6yNH1CqrP5aNpvl8j8D-113" target="s6yNH1CqrP5aNpvl8j8D-114" edge="1">
          <mxGeometry relative="1" as="geometry" />
        </mxCell>
        <mxCell id="s6yNH1CqrP5aNpvl8j8D-112" style="edgeStyle=orthogonalEdgeStyle;rounded=0;orthogonalLoop=1;jettySize=auto;html=1;entryX=0;entryY=0.5;entryDx=0;entryDy=0;entryPerimeter=0;" parent="s6yNH1CqrP5aNpvl8j8D-70" source="s6yNH1CqrP5aNpvl8j8D-113" target="xjQJxT_6Q9AMiEBjkDGa-24" edge="1">
          <mxGeometry relative="1" as="geometry">
            <mxPoint x="1000" y="92.5" as="targetPoint" />
          </mxGeometry>
        </mxCell>
        <mxCell id="s6yNH1CqrP5aNpvl8j8D-113" value="" style="points=[[0.145,0.145,0],[0.5,0,0],[0.855,0.145,0],[1,0.5,0],[0.855,0.855,0],[0.5,1,0],[0.145,0.855,0],[0,0.5,0]];shape=mxgraph.bpmn.event;html=1;verticalLabelPosition=bottom;labelBackgroundColor=#ffffff;verticalAlign=top;align=center;perimeter=ellipsePerimeter;outlineConnect=0;aspect=fixed;outline=throwing;symbol=general;fillColor=#f8cecc;strokeColor=#b85450;" parent="s6yNH1CqrP5aNpvl8j8D-70" vertex="1">
          <mxGeometry x="930" y="72.5" width="40" height="40" as="geometry" />
        </mxCell>
        <mxCell id="s6yNH1CqrP5aNpvl8j8D-114" value="&lt;font style=&quot;font-size: 10px;&quot;&gt;Clic botón Buscar&lt;/font&gt;" style="text;html=1;strokeColor=none;fillColor=none;align=center;verticalAlign=middle;whiteSpace=wrap;rounded=0;" parent="s6yNH1CqrP5aNpvl8j8D-70" vertex="1">
          <mxGeometry x="920" y="145" width="60" height="30" as="geometry" />
        </mxCell>
        <mxCell id="xjQJxT_6Q9AMiEBjkDGa-18" style="edgeStyle=orthogonalEdgeStyle;rounded=0;orthogonalLoop=1;jettySize=auto;html=1;entryX=0;entryY=0.5;entryDx=0;entryDy=0;entryPerimeter=0;" edge="1" parent="s6yNH1CqrP5aNpvl8j8D-70" source="xjQJxT_6Q9AMiEBjkDGa-14" target="xjQJxT_6Q9AMiEBjkDGa-15">
          <mxGeometry relative="1" as="geometry" />
        </mxCell>
        <mxCell id="xjQJxT_6Q9AMiEBjkDGa-14" value="Ingresar al modulo de &quot;Consulta General&quot;" style="points=[[0.25,0,0],[0.5,0,0],[0.75,0,0],[1,0.25,0],[1,0.5,0],[1,0.75,0],[0.75,1,0],[0.5,1,0],[0.25,1,0],[0,0.75,0],[0,0.5,0],[0,0.25,0]];shape=mxgraph.bpmn.task;whiteSpace=wrap;rectStyle=rounded;size=10;html=1;container=1;expand=0;collapsible=0;taskMarker=manual;fillColor=#fff2cc;strokeColor=#d6b656;" vertex="1" parent="s6yNH1CqrP5aNpvl8j8D-70">
          <mxGeometry x="450" y="52.5" width="120" height="80" as="geometry" />
        </mxCell>
        <mxCell id="xjQJxT_6Q9AMiEBjkDGa-20" style="edgeStyle=orthogonalEdgeStyle;rounded=0;orthogonalLoop=1;jettySize=auto;html=1;entryX=0;entryY=0.5;entryDx=0;entryDy=0;entryPerimeter=0;" edge="1" parent="s6yNH1CqrP5aNpvl8j8D-70" source="xjQJxT_6Q9AMiEBjkDGa-15" target="xjQJxT_6Q9AMiEBjkDGa-19">
          <mxGeometry relative="1" as="geometry" />
        </mxCell>
        <mxCell id="xjQJxT_6Q9AMiEBjkDGa-15" value="Escoger en Tipo de Consulta &quot;Solicitud de Servicio de Salud&quot;" style="points=[[0.25,0,0],[0.5,0,0],[0.75,0,0],[1,0.25,0],[1,0.5,0],[1,0.75,0],[0.75,1,0],[0.5,1,0],[0.25,1,0],[0,0.75,0],[0,0.5,0],[0,0.25,0]];shape=mxgraph.bpmn.task;whiteSpace=wrap;rectStyle=rounded;size=10;html=1;container=1;expand=0;collapsible=0;taskMarker=manual;fillColor=#fff2cc;strokeColor=#d6b656;" vertex="1" parent="s6yNH1CqrP5aNpvl8j8D-70">
          <mxGeometry x="610" y="52.5" width="120" height="80" as="geometry" />
        </mxCell>
        <mxCell id="xjQJxT_6Q9AMiEBjkDGa-23" style="edgeStyle=orthogonalEdgeStyle;rounded=0;orthogonalLoop=1;jettySize=auto;html=1;entryX=0;entryY=0.5;entryDx=0;entryDy=0;entryPerimeter=0;" edge="1" parent="s6yNH1CqrP5aNpvl8j8D-70" source="xjQJxT_6Q9AMiEBjkDGa-19" target="s6yNH1CqrP5aNpvl8j8D-113">
          <mxGeometry relative="1" as="geometry">
            <mxPoint x="930" y="92.5" as="targetPoint" />
          </mxGeometry>
        </mxCell>
        <mxCell id="xjQJxT_6Q9AMiEBjkDGa-19" value="Diligenciar los campos para realizar la consulta de la A3" style="points=[[0.25,0,0],[0.5,0,0],[0.75,0,0],[1,0.25,0],[1,0.5,0],[1,0.75,0],[0.75,1,0],[0.5,1,0],[0.25,1,0],[0,0.75,0],[0,0.5,0],[0,0.25,0]];shape=mxgraph.bpmn.task;whiteSpace=wrap;rectStyle=rounded;size=10;html=1;container=1;expand=0;collapsible=0;taskMarker=manual;fillColor=#fff2cc;strokeColor=#d6b656;" vertex="1" parent="s6yNH1CqrP5aNpvl8j8D-70">
          <mxGeometry x="770" y="52.5" width="120" height="80" as="geometry" />
        </mxCell>
        <mxCell id="xjQJxT_6Q9AMiEBjkDGa-26" style="edgeStyle=orthogonalEdgeStyle;rounded=0;orthogonalLoop=1;jettySize=auto;html=1;entryX=0;entryY=0.5;entryDx=0;entryDy=0;entryPerimeter=0;" edge="1" parent="s6yNH1CqrP5aNpvl8j8D-70" source="xjQJxT_6Q9AMiEBjkDGa-24" target="xjQJxT_6Q9AMiEBjkDGa-25">
          <mxGeometry relative="1" as="geometry" />
        </mxCell>
        <mxCell id="xjQJxT_6Q9AMiEBjkDGa-24" value="Ingresar al detalle del A3" style="points=[[0.25,0,0],[0.5,0,0],[0.75,0,0],[1,0.25,0],[1,0.5,0],[1,0.75,0],[0.75,1,0],[0.5,1,0],[0.25,1,0],[0,0.75,0],[0,0.5,0],[0,0.25,0]];shape=mxgraph.bpmn.task;whiteSpace=wrap;rectStyle=rounded;size=10;html=1;container=1;expand=0;collapsible=0;taskMarker=manual;fillColor=#fff2cc;strokeColor=#d6b656;" vertex="1" parent="s6yNH1CqrP5aNpvl8j8D-70">
          <mxGeometry x="1010" y="52.5" width="120" height="80" as="geometry" />
        </mxCell>
        <mxCell id="xjQJxT_6Q9AMiEBjkDGa-25" value="&lt;span style=&quot;font-size: 10px;&quot;&gt;Aprobar o Anular A3&lt;/span&gt;" style="points=[[0.25,0.25,0],[0.5,0,0],[0.75,0.25,0],[1,0.5,0],[0.75,0.75,0],[0.5,1,0],[0.25,0.75,0],[0,0.5,0]];shape=mxgraph.bpmn.gateway2;html=1;verticalLabelPosition=bottom;labelBackgroundColor=#ffffff;verticalAlign=top;align=center;perimeter=rhombusPerimeter;outlineConnect=0;outline=none;symbol=none;fillColor=#d5e8d4;strokeColor=#82b366;" vertex="1" parent="s6yNH1CqrP5aNpvl8j8D-70">
          <mxGeometry x="1170" y="67.5" width="50" height="50" as="geometry" />
        </mxCell>
        <mxCell id="s6yNH1CqrP5aNpvl8j8D-34" value="Consultar A3" style="edgeStyle=orthogonalEdgeStyle;rounded=0;orthogonalLoop=1;jettySize=auto;html=1;exitX=0.5;exitY=1;exitDx=0;exitDy=0;exitPerimeter=0;" parent="dWiLZQFSB1augytXqu6K-1" target="xjQJxT_6Q9AMiEBjkDGa-14" edge="1" source="s6yNH1CqrP5aNpvl8j8D-69">
          <mxGeometry x="0.5234" relative="1" as="geometry">
            <mxPoint x="470" y="592.5" as="targetPoint" />
            <Array as="points">
              <mxPoint x="315" y="653" />
            </Array>
            <mxPoint x="325" y="337.5" as="sourcePoint" />
            <mxPoint y="1" as="offset" />
          </mxGeometry>
        </mxCell>
        <mxCell id="s6yNH1CqrP5aNpvl8j8D-12" value="Registrar&lt;br&gt;A3" style="edgeStyle=orthogonalEdgeStyle;rounded=0;orthogonalLoop=1;jettySize=auto;html=1;exitX=1;exitY=0.5;exitDx=0;exitDy=0;exitPerimeter=0;" parent="dWiLZQFSB1augytXqu6K-1" target="xjQJxT_6Q9AMiEBjkDGa-6" edge="1" source="s6yNH1CqrP5aNpvl8j8D-69">
          <mxGeometry relative="1" as="geometry">
            <mxPoint x="350" y="312.5" as="sourcePoint" />
            <mxPoint x="520" y="280" as="targetPoint" />
            <Array as="points">
              <mxPoint x="510" y="113" />
            </Array>
          </mxGeometry>
        </mxCell>
        <mxCell id="s6yNH1CqrP5aNpvl8j8D-138" value="Aprobar A3" style="swimlane;startSize=20;horizontal=0;html=1;" parent="dWiLZQFSB1augytXqu6K-1" vertex="1">
          <mxGeometry y="880" width="2350" height="320" as="geometry" />
        </mxCell>
        <mxCell id="s6yNH1CqrP5aNpvl8j8D-129" value="No" style="edgeStyle=orthogonalEdgeStyle;rounded=0;orthogonalLoop=1;jettySize=auto;html=1;entryX=0;entryY=0.5;entryDx=0;entryDy=0;entryPerimeter=0;" parent="s6yNH1CqrP5aNpvl8j8D-138" source="s6yNH1CqrP5aNpvl8j8D-131" target="xjQJxT_6Q9AMiEBjkDGa-82" edge="1">
          <mxGeometry relative="1" as="geometry">
            <mxPoint x="1645" y="168" as="targetPoint" />
            <Array as="points">
              <mxPoint x="1665" y="180" />
            </Array>
          </mxGeometry>
        </mxCell>
        <mxCell id="s6yNH1CqrP5aNpvl8j8D-130" value="Text" style="edgeLabel;html=1;align=center;verticalAlign=middle;resizable=0;points=[];" parent="s6yNH1CqrP5aNpvl8j8D-129" vertex="1" connectable="0">
          <mxGeometry x="-0.6229" y="5" relative="1" as="geometry">
            <mxPoint y="1" as="offset" />
          </mxGeometry>
        </mxCell>
        <mxCell id="s6yNH1CqrP5aNpvl8j8D-122" value="No" style="edgeStyle=orthogonalEdgeStyle;rounded=0;orthogonalLoop=1;jettySize=auto;html=1;entryX=0.5;entryY=0;entryDx=0;entryDy=0;entryPerimeter=0;" parent="s6yNH1CqrP5aNpvl8j8D-138" source="s6yNH1CqrP5aNpvl8j8D-123" target="s6yNH1CqrP5aNpvl8j8D-126" edge="1">
          <mxGeometry x="0.3143" relative="1" as="geometry">
            <mxPoint x="1425" y="188" as="targetPoint" />
            <mxPoint as="offset" />
          </mxGeometry>
        </mxCell>
        <mxCell id="s6yNH1CqrP5aNpvl8j8D-119" value="" style="points=[[0.145,0.145,0],[0.5,0,0],[0.855,0.145,0],[1,0.5,0],[0.855,0.855,0],[0.5,1,0],[0.145,0.855,0],[0,0.5,0]];shape=mxgraph.bpmn.event;html=1;verticalLabelPosition=bottom;labelBackgroundColor=#ffffff;verticalAlign=top;align=center;perimeter=ellipsePerimeter;outlineConnect=0;aspect=fixed;outline=throwing;symbol=general;fillColor=#f8cecc;strokeColor=#b85450;" parent="s6yNH1CqrP5aNpvl8j8D-138" vertex="1">
          <mxGeometry x="1280" y="40.5" width="40" height="40" as="geometry" />
        </mxCell>
        <mxCell id="s6yNH1CqrP5aNpvl8j8D-120" value="&lt;font style=&quot;font-size: 10px;&quot;&gt;Clic botón Confirmación&lt;/font&gt;" style="text;html=1;strokeColor=none;fillColor=none;align=center;verticalAlign=middle;whiteSpace=wrap;rounded=0;" parent="s6yNH1CqrP5aNpvl8j8D-138" vertex="1">
          <mxGeometry x="1270" y="110" width="60" height="30" as="geometry" />
        </mxCell>
        <mxCell id="s6yNH1CqrP5aNpvl8j8D-117" style="edgeStyle=orthogonalEdgeStyle;rounded=0;orthogonalLoop=1;jettySize=auto;html=1;entryX=0.5;entryY=0;entryDx=0;entryDy=0;" parent="s6yNH1CqrP5aNpvl8j8D-138" source="s6yNH1CqrP5aNpvl8j8D-119" target="s6yNH1CqrP5aNpvl8j8D-120" edge="1">
          <mxGeometry relative="1" as="geometry" />
        </mxCell>
        <mxCell id="s6yNH1CqrP5aNpvl8j8D-123" value="&lt;font style=&quot;font-size: 10px;&quot;&gt;Servicio 890, 896 o &lt;br&gt;899&lt;/font&gt;" style="points=[[0.25,0.25,0],[0.5,0,0],[0.75,0.25,0],[1,0.5,0],[0.75,0.75,0],[0.5,1,0],[0.25,0.75,0],[0,0.5,0]];shape=mxgraph.bpmn.gateway2;html=1;verticalLabelPosition=bottom;labelBackgroundColor=#ffffff;verticalAlign=top;align=center;perimeter=rhombusPerimeter;outlineConnect=0;outline=none;symbol=none;fillColor=#d5e8d4;strokeColor=#82b366;" parent="s6yNH1CqrP5aNpvl8j8D-138" vertex="1">
          <mxGeometry x="1370" y="35.5" width="50" height="50" as="geometry" />
        </mxCell>
        <mxCell id="s6yNH1CqrP5aNpvl8j8D-118" style="edgeStyle=orthogonalEdgeStyle;rounded=0;orthogonalLoop=1;jettySize=auto;html=1;" parent="s6yNH1CqrP5aNpvl8j8D-138" source="s6yNH1CqrP5aNpvl8j8D-119" target="s6yNH1CqrP5aNpvl8j8D-123" edge="1">
          <mxGeometry relative="1" as="geometry">
            <mxPoint x="1400" y="55.5" as="targetPoint" />
          </mxGeometry>
        </mxCell>
        <mxCell id="s6yNH1CqrP5aNpvl8j8D-121" value="Si" style="edgeStyle=orthogonalEdgeStyle;rounded=0;orthogonalLoop=1;jettySize=auto;html=1;entryX=0;entryY=0.5;entryDx=0;entryDy=0;entryPerimeter=0;" parent="s6yNH1CqrP5aNpvl8j8D-138" source="s6yNH1CqrP5aNpvl8j8D-123" target="xjQJxT_6Q9AMiEBjkDGa-89" edge="1">
          <mxGeometry relative="1" as="geometry">
            <mxPoint x="1460" y="60.5" as="targetPoint" />
          </mxGeometry>
        </mxCell>
        <mxCell id="s6yNH1CqrP5aNpvl8j8D-126" value="" style="points=[[0.145,0.145,0],[0.5,0,0],[0.855,0.145,0],[1,0.5,0],[0.855,0.855,0],[0.5,1,0],[0.145,0.855,0],[0,0.5,0]];shape=mxgraph.bpmn.event;html=1;verticalLabelPosition=bottom;labelBackgroundColor=#ffffff;verticalAlign=top;align=center;perimeter=ellipsePerimeter;outlineConnect=0;aspect=fixed;outline=end;symbol=terminate2;fillColor=#f8cecc;strokeColor=#b85450;" parent="s6yNH1CqrP5aNpvl8j8D-138" vertex="1">
          <mxGeometry x="1370" y="168" width="50" height="50" as="geometry" />
        </mxCell>
        <mxCell id="s6yNH1CqrP5aNpvl8j8D-131" value="&lt;font style=&quot;font-size: 10px;&quot;&gt;Usuario con&lt;br style=&quot;border-color: var(--border-color);&quot;&gt;rol 10 y nivel de autorización&lt;br style=&quot;border-color: var(--border-color);&quot;&gt;&amp;gt; 3&lt;/font&gt;" style="points=[[0.25,0.25,0],[0.5,0,0],[0.75,0.25,0],[1,0.5,0],[0.75,0.75,0],[0.5,1,0],[0.25,0.75,0],[0,0.5,0]];shape=mxgraph.bpmn.gateway2;html=1;verticalLabelPosition=bottom;labelBackgroundColor=#ffffff;verticalAlign=top;align=center;perimeter=rhombusPerimeter;outlineConnect=0;outline=none;symbol=none;fillColor=#d5e8d4;strokeColor=#82b366;" parent="s6yNH1CqrP5aNpvl8j8D-138" vertex="1">
          <mxGeometry x="1640" y="35.5" width="50" height="50" as="geometry" />
        </mxCell>
        <mxCell id="s6yNH1CqrP5aNpvl8j8D-127" value="Si" style="edgeStyle=orthogonalEdgeStyle;rounded=0;orthogonalLoop=1;jettySize=auto;html=1;" parent="s6yNH1CqrP5aNpvl8j8D-138" source="s6yNH1CqrP5aNpvl8j8D-131" target="xjQJxT_6Q9AMiEBjkDGa-92" edge="1">
          <mxGeometry relative="1" as="geometry">
            <mxPoint x="1750" y="60.5" as="targetPoint" />
          </mxGeometry>
        </mxCell>
        <mxCell id="xjQJxT_6Q9AMiEBjkDGa-86" style="edgeStyle=orthogonalEdgeStyle;rounded=0;orthogonalLoop=1;jettySize=auto;html=1;" edge="1" parent="s6yNH1CqrP5aNpvl8j8D-138" source="xjQJxT_6Q9AMiEBjkDGa-82" target="xjQJxT_6Q9AMiEBjkDGa-83">
          <mxGeometry relative="1" as="geometry" />
        </mxCell>
        <mxCell id="xjQJxT_6Q9AMiEBjkDGa-82" value="No permite aprobar el A3 de servicios complementarios" style="points=[[0.25,0,0],[0.5,0,0],[0.75,0,0],[1,0.25,0],[1,0.5,0],[1,0.75,0],[0.75,1,0],[0.5,1,0],[0.25,1,0],[0,0.75,0],[0,0.5,0],[0,0.25,0]];shape=mxgraph.bpmn.task;whiteSpace=wrap;rectStyle=rounded;size=10;html=1;container=1;expand=0;collapsible=0;taskMarker=service;fillColor=#fff2cc;strokeColor=#d6b656;" vertex="1" parent="s6yNH1CqrP5aNpvl8j8D-138">
          <mxGeometry x="1750" y="138" width="120" height="80" as="geometry" />
        </mxCell>
        <mxCell id="xjQJxT_6Q9AMiEBjkDGa-88" style="edgeStyle=orthogonalEdgeStyle;rounded=0;orthogonalLoop=1;jettySize=auto;html=1;dashed=1;" edge="1" parent="s6yNH1CqrP5aNpvl8j8D-138" source="xjQJxT_6Q9AMiEBjkDGa-83" target="xjQJxT_6Q9AMiEBjkDGa-87">
          <mxGeometry relative="1" as="geometry" />
        </mxCell>
        <mxCell id="xjQJxT_6Q9AMiEBjkDGa-94" style="edgeStyle=orthogonalEdgeStyle;rounded=0;orthogonalLoop=1;jettySize=auto;html=1;entryX=0.5;entryY=1;entryDx=0;entryDy=0;entryPerimeter=0;" edge="1" parent="s6yNH1CqrP5aNpvl8j8D-138" source="xjQJxT_6Q9AMiEBjkDGa-83" target="xjQJxT_6Q9AMiEBjkDGa-84">
          <mxGeometry relative="1" as="geometry" />
        </mxCell>
        <mxCell id="xjQJxT_6Q9AMiEBjkDGa-83" value="Mostrar mensaje en pantalla" style="points=[[0.25,0,0],[0.5,0,0],[0.75,0,0],[1,0.25,0],[1,0.5,0],[1,0.75,0],[0.75,1,0],[0.5,1,0],[0.25,1,0],[0,0.75,0],[0,0.5,0],[0,0.25,0]];shape=mxgraph.bpmn.task;whiteSpace=wrap;rectStyle=rounded;size=10;html=1;container=1;expand=0;collapsible=0;taskMarker=send;fillColor=#fff2cc;strokeColor=#d6b656;" vertex="1" parent="s6yNH1CqrP5aNpvl8j8D-138">
          <mxGeometry x="1920" y="138" width="120" height="80" as="geometry" />
        </mxCell>
        <mxCell id="xjQJxT_6Q9AMiEBjkDGa-84" value="" style="points=[[0.25,0.25,0],[0.5,0,0],[0.75,0.25,0],[1,0.5,0],[0.75,0.75,0],[0.5,1,0],[0.25,0.75,0],[0,0.5,0]];shape=mxgraph.bpmn.gateway2;html=1;verticalLabelPosition=bottom;labelBackgroundColor=#ffffff;verticalAlign=top;align=center;perimeter=rhombusPerimeter;outlineConnect=0;outline=end;symbol=general;fillColor=#d5e8d4;strokeColor=#82b366;" vertex="1" parent="s6yNH1CqrP5aNpvl8j8D-138">
          <mxGeometry x="2080" y="80" width="50" height="50" as="geometry" />
        </mxCell>
        <mxCell id="xjQJxT_6Q9AMiEBjkDGa-87" value="&lt;p data-pm-slice=&quot;1 1 [&amp;quot;table&amp;quot;,{&amp;quot;isNumberColumnEnabled&amp;quot;:false,&amp;quot;layout&amp;quot;:&amp;quot;wide&amp;quot;,&amp;quot;__autoSize&amp;quot;:false,&amp;quot;localId&amp;quot;:&amp;quot;922ff2e6-c428-4bf7-b1dc-2d80d05656cd&amp;quot;},&amp;quot;tableRow&amp;quot;,{},&amp;quot;tableCell&amp;quot;,{&amp;quot;colspan&amp;quot;:1,&amp;quot;rowspan&amp;quot;:1,&amp;quot;colwidth&amp;quot;:[471],&amp;quot;background&amp;quot;:null}]&quot;&gt;&lt;em&gt;“Sr. Usuario usted no tiene permisos para realizar esta acción.”&lt;/em&gt;&lt;/p&gt;" style="text;html=1;strokeColor=none;fillColor=none;align=center;verticalAlign=middle;whiteSpace=wrap;rounded=0;" vertex="1" parent="s6yNH1CqrP5aNpvl8j8D-138">
          <mxGeometry x="1880" y="260" width="200" height="30" as="geometry" />
        </mxCell>
        <mxCell id="xjQJxT_6Q9AMiEBjkDGa-91" style="edgeStyle=orthogonalEdgeStyle;rounded=0;orthogonalLoop=1;jettySize=auto;html=1;" edge="1" parent="s6yNH1CqrP5aNpvl8j8D-138" source="xjQJxT_6Q9AMiEBjkDGa-89" target="s6yNH1CqrP5aNpvl8j8D-131">
          <mxGeometry relative="1" as="geometry" />
        </mxCell>
        <mxCell id="xjQJxT_6Q9AMiEBjkDGa-89" value="Validar rol de usuario que esta intentando aprobar la solicitud" style="points=[[0.25,0,0],[0.5,0,0],[0.75,0,0],[1,0.25,0],[1,0.5,0],[1,0.75,0],[0.75,1,0],[0.5,1,0],[0.25,1,0],[0,0.75,0],[0,0.5,0],[0,0.25,0]];shape=mxgraph.bpmn.task;whiteSpace=wrap;rectStyle=rounded;size=10;html=1;container=1;expand=0;collapsible=0;taskMarker=service;fillColor=#fff2cc;strokeColor=#d6b656;" vertex="1" parent="s6yNH1CqrP5aNpvl8j8D-138">
          <mxGeometry x="1480" y="20.5" width="120" height="80" as="geometry" />
        </mxCell>
        <mxCell id="xjQJxT_6Q9AMiEBjkDGa-93" style="edgeStyle=orthogonalEdgeStyle;rounded=0;orthogonalLoop=1;jettySize=auto;html=1;entryX=0.5;entryY=0;entryDx=0;entryDy=0;entryPerimeter=0;" edge="1" parent="s6yNH1CqrP5aNpvl8j8D-138" source="xjQJxT_6Q9AMiEBjkDGa-92" target="xjQJxT_6Q9AMiEBjkDGa-84">
          <mxGeometry relative="1" as="geometry" />
        </mxCell>
        <mxCell id="xjQJxT_6Q9AMiEBjkDGa-92" value="Aprobar A3 y cambiar estado a APROBADO" style="points=[[0.25,0,0],[0.5,0,0],[0.75,0,0],[1,0.25,0],[1,0.5,0],[1,0.75,0],[0.75,1,0],[0.5,1,0],[0.25,1,0],[0,0.75,0],[0,0.5,0],[0,0.25,0]];shape=mxgraph.bpmn.task;whiteSpace=wrap;rectStyle=rounded;size=10;html=1;container=1;expand=0;collapsible=0;taskMarker=service;fillColor=#fff2cc;strokeColor=#d6b656;" vertex="1" parent="s6yNH1CqrP5aNpvl8j8D-138">
          <mxGeometry x="1750" y="20.5" width="120" height="80" as="geometry" />
        </mxCell>
        <mxCell id="xjQJxT_6Q9AMiEBjkDGa-40" value="Anular A3" style="swimlane;startSize=20;horizontal=0;html=1;" vertex="1" parent="dWiLZQFSB1augytXqu6K-1">
          <mxGeometry y="1200" width="2350" height="320" as="geometry" />
        </mxCell>
        <mxCell id="xjQJxT_6Q9AMiEBjkDGa-45" style="edgeStyle=orthogonalEdgeStyle;rounded=0;orthogonalLoop=1;jettySize=auto;html=1;entryX=0.5;entryY=0;entryDx=0;entryDy=0;" edge="1" parent="xjQJxT_6Q9AMiEBjkDGa-40" source="xjQJxT_6Q9AMiEBjkDGa-47" target="xjQJxT_6Q9AMiEBjkDGa-48">
          <mxGeometry relative="1" as="geometry" />
        </mxCell>
        <mxCell id="xjQJxT_6Q9AMiEBjkDGa-46" style="edgeStyle=orthogonalEdgeStyle;rounded=0;orthogonalLoop=1;jettySize=auto;html=1;" edge="1" parent="xjQJxT_6Q9AMiEBjkDGa-40" source="xjQJxT_6Q9AMiEBjkDGa-47" target="xjQJxT_6Q9AMiEBjkDGa-51">
          <mxGeometry relative="1" as="geometry">
            <mxPoint x="1440" y="62.5" as="targetPoint" />
          </mxGeometry>
        </mxCell>
        <mxCell id="xjQJxT_6Q9AMiEBjkDGa-47" value="" style="points=[[0.145,0.145,0],[0.5,0,0],[0.855,0.145,0],[1,0.5,0],[0.855,0.855,0],[0.5,1,0],[0.145,0.855,0],[0,0.5,0]];shape=mxgraph.bpmn.event;html=1;verticalLabelPosition=bottom;labelBackgroundColor=#ffffff;verticalAlign=top;align=center;perimeter=ellipsePerimeter;outlineConnect=0;aspect=fixed;outline=throwing;symbol=general;fillColor=#f8cecc;strokeColor=#b85450;" vertex="1" parent="xjQJxT_6Q9AMiEBjkDGa-40">
          <mxGeometry x="1280" y="42.5" width="40" height="40" as="geometry" />
        </mxCell>
        <mxCell id="xjQJxT_6Q9AMiEBjkDGa-48" value="&lt;font style=&quot;font-size: 10px;&quot;&gt;Clic botón Anular&lt;/font&gt;" style="text;html=1;strokeColor=none;fillColor=none;align=center;verticalAlign=middle;whiteSpace=wrap;rounded=0;" vertex="1" parent="xjQJxT_6Q9AMiEBjkDGa-40">
          <mxGeometry x="1270" y="120" width="60" height="30" as="geometry" />
        </mxCell>
        <mxCell id="xjQJxT_6Q9AMiEBjkDGa-49" value="Si" style="edgeStyle=orthogonalEdgeStyle;rounded=0;orthogonalLoop=1;jettySize=auto;html=1;" edge="1" parent="xjQJxT_6Q9AMiEBjkDGa-40" source="xjQJxT_6Q9AMiEBjkDGa-51" target="xjQJxT_6Q9AMiEBjkDGa-95">
          <mxGeometry relative="1" as="geometry">
            <mxPoint x="1480" y="63" as="targetPoint" />
          </mxGeometry>
        </mxCell>
        <mxCell id="xjQJxT_6Q9AMiEBjkDGa-50" value="No" style="edgeStyle=orthogonalEdgeStyle;rounded=0;orthogonalLoop=1;jettySize=auto;html=1;entryX=0.5;entryY=0;entryDx=0;entryDy=0;entryPerimeter=0;" edge="1" parent="xjQJxT_6Q9AMiEBjkDGa-40" source="xjQJxT_6Q9AMiEBjkDGa-51" target="xjQJxT_6Q9AMiEBjkDGa-54">
          <mxGeometry x="0.3143" relative="1" as="geometry">
            <mxPoint x="1465" y="195" as="targetPoint" />
            <mxPoint as="offset" />
            <Array as="points">
              <mxPoint x="1405" y="175" />
            </Array>
          </mxGeometry>
        </mxCell>
        <mxCell id="xjQJxT_6Q9AMiEBjkDGa-51" value="&lt;font style=&quot;font-size: 10px;&quot;&gt;Servicio 890, 896 o &lt;br&gt;899&lt;/font&gt;" style="points=[[0.25,0.25,0],[0.5,0,0],[0.75,0.25,0],[1,0.5,0],[0.75,0.75,0],[0.5,1,0],[0.25,0.75,0],[0,0.5,0]];shape=mxgraph.bpmn.gateway2;html=1;verticalLabelPosition=bottom;labelBackgroundColor=#ffffff;verticalAlign=top;align=center;perimeter=rhombusPerimeter;outlineConnect=0;outline=none;symbol=none;fillColor=#d5e8d4;strokeColor=#82b366;" vertex="1" parent="xjQJxT_6Q9AMiEBjkDGa-40">
          <mxGeometry x="1380" y="37.5" width="50" height="50" as="geometry" />
        </mxCell>
        <mxCell id="xjQJxT_6Q9AMiEBjkDGa-52" style="edgeStyle=orthogonalEdgeStyle;rounded=0;orthogonalLoop=1;jettySize=auto;html=1;entryX=0;entryY=0.5;entryDx=0;entryDy=0;entryPerimeter=0;exitX=1;exitY=0.5;exitDx=0;exitDy=0;exitPerimeter=0;" edge="1" parent="xjQJxT_6Q9AMiEBjkDGa-40" source="xjQJxT_6Q9AMiEBjkDGa-95" target="xjQJxT_6Q9AMiEBjkDGa-59">
          <mxGeometry relative="1" as="geometry">
            <mxPoint x="1680" y="62.5" as="sourcePoint" />
          </mxGeometry>
        </mxCell>
        <mxCell id="xjQJxT_6Q9AMiEBjkDGa-54" value="" style="points=[[0.145,0.145,0],[0.5,0,0],[0.855,0.145,0],[1,0.5,0],[0.855,0.855,0],[0.5,1,0],[0.145,0.855,0],[0,0.5,0]];shape=mxgraph.bpmn.event;html=1;verticalLabelPosition=bottom;labelBackgroundColor=#ffffff;verticalAlign=top;align=center;perimeter=ellipsePerimeter;outlineConnect=0;aspect=fixed;outline=end;symbol=terminate2;fillColor=#f8cecc;strokeColor=#b85450;" vertex="1" parent="xjQJxT_6Q9AMiEBjkDGa-40">
          <mxGeometry x="1380" y="180" width="50" height="50" as="geometry" />
        </mxCell>
        <mxCell id="xjQJxT_6Q9AMiEBjkDGa-55" value="Si" style="edgeStyle=orthogonalEdgeStyle;rounded=0;orthogonalLoop=1;jettySize=auto;html=1;entryX=0;entryY=0.5;entryDx=0;entryDy=0;entryPerimeter=0;" edge="1" parent="xjQJxT_6Q9AMiEBjkDGa-40" source="xjQJxT_6Q9AMiEBjkDGa-59" target="xjQJxT_6Q9AMiEBjkDGa-97">
          <mxGeometry relative="1" as="geometry">
            <mxPoint x="1840" y="62.5" as="targetPoint" />
          </mxGeometry>
        </mxCell>
        <mxCell id="xjQJxT_6Q9AMiEBjkDGa-100" value="No" style="edgeStyle=orthogonalEdgeStyle;rounded=0;orthogonalLoop=1;jettySize=auto;html=1;entryX=0;entryY=0.5;entryDx=0;entryDy=0;entryPerimeter=0;" edge="1" parent="xjQJxT_6Q9AMiEBjkDGa-40" source="xjQJxT_6Q9AMiEBjkDGa-59" target="xjQJxT_6Q9AMiEBjkDGa-99">
          <mxGeometry relative="1" as="geometry">
            <Array as="points">
              <mxPoint x="1675" y="190" />
            </Array>
          </mxGeometry>
        </mxCell>
        <mxCell id="xjQJxT_6Q9AMiEBjkDGa-59" value="&lt;font style=&quot;font-size: 10px;&quot;&gt;Usuario con&lt;br&gt;rol 10 y nivel de autorización&lt;br&gt;&amp;gt; 3&lt;br&gt;&lt;/font&gt;" style="points=[[0.25,0.25,0],[0.5,0,0],[0.75,0.25,0],[1,0.5,0],[0.75,0.75,0],[0.5,1,0],[0.25,0.75,0],[0,0.5,0]];shape=mxgraph.bpmn.gateway2;html=1;verticalLabelPosition=bottom;labelBackgroundColor=#ffffff;verticalAlign=top;align=center;perimeter=rhombusPerimeter;outlineConnect=0;outline=none;symbol=none;fillColor=#d5e8d4;strokeColor=#82b366;" vertex="1" parent="xjQJxT_6Q9AMiEBjkDGa-40">
          <mxGeometry x="1650" y="37.5" width="50" height="50" as="geometry" />
        </mxCell>
        <mxCell id="xjQJxT_6Q9AMiEBjkDGa-95" value="Validar rol de usuario que esta intentando anular la solicitud" style="points=[[0.25,0,0],[0.5,0,0],[0.75,0,0],[1,0.25,0],[1,0.5,0],[1,0.75,0],[0.75,1,0],[0.5,1,0],[0.25,1,0],[0,0.75,0],[0,0.5,0],[0,0.25,0]];shape=mxgraph.bpmn.task;whiteSpace=wrap;rectStyle=rounded;size=10;html=1;container=1;expand=0;collapsible=0;taskMarker=service;fillColor=#fff2cc;strokeColor=#d6b656;" vertex="1" parent="xjQJxT_6Q9AMiEBjkDGa-40">
          <mxGeometry x="1480" y="22.5" width="120" height="80" as="geometry" />
        </mxCell>
        <mxCell id="xjQJxT_6Q9AMiEBjkDGa-105" style="edgeStyle=orthogonalEdgeStyle;rounded=0;orthogonalLoop=1;jettySize=auto;html=1;entryX=0.5;entryY=0;entryDx=0;entryDy=0;entryPerimeter=0;" edge="1" parent="xjQJxT_6Q9AMiEBjkDGa-40" source="xjQJxT_6Q9AMiEBjkDGa-97" target="xjQJxT_6Q9AMiEBjkDGa-98">
          <mxGeometry relative="1" as="geometry" />
        </mxCell>
        <mxCell id="xjQJxT_6Q9AMiEBjkDGa-97" value="Anular A3 y cambiar estado a ANULADO" style="points=[[0.25,0,0],[0.5,0,0],[0.75,0,0],[1,0.25,0],[1,0.5,0],[1,0.75,0],[0.75,1,0],[0.5,1,0],[0.25,1,0],[0,0.75,0],[0,0.5,0],[0,0.25,0]];shape=mxgraph.bpmn.task;whiteSpace=wrap;rectStyle=rounded;size=10;html=1;container=1;expand=0;collapsible=0;taskMarker=service;fillColor=#fff2cc;strokeColor=#d6b656;" vertex="1" parent="xjQJxT_6Q9AMiEBjkDGa-40">
          <mxGeometry x="1750" y="22.5" width="120" height="80" as="geometry" />
        </mxCell>
        <mxCell id="xjQJxT_6Q9AMiEBjkDGa-98" value="" style="points=[[0.25,0.25,0],[0.5,0,0],[0.75,0.25,0],[1,0.5,0],[0.75,0.75,0],[0.5,1,0],[0.25,0.75,0],[0,0.5,0]];shape=mxgraph.bpmn.gateway2;html=1;verticalLabelPosition=bottom;labelBackgroundColor=#ffffff;verticalAlign=top;align=center;perimeter=rhombusPerimeter;outlineConnect=0;outline=end;symbol=general;fillColor=#d5e8d4;strokeColor=#82b366;" vertex="1" parent="xjQJxT_6Q9AMiEBjkDGa-40">
          <mxGeometry x="2080" y="87.5" width="50" height="50" as="geometry" />
        </mxCell>
        <mxCell id="xjQJxT_6Q9AMiEBjkDGa-102" style="edgeStyle=orthogonalEdgeStyle;rounded=0;orthogonalLoop=1;jettySize=auto;html=1;" edge="1" parent="xjQJxT_6Q9AMiEBjkDGa-40" source="xjQJxT_6Q9AMiEBjkDGa-99" target="xjQJxT_6Q9AMiEBjkDGa-101">
          <mxGeometry relative="1" as="geometry" />
        </mxCell>
        <mxCell id="xjQJxT_6Q9AMiEBjkDGa-99" value="No permite anular A3 de servicios complementarios" style="points=[[0.25,0,0],[0.5,0,0],[0.75,0,0],[1,0.25,0],[1,0.5,0],[1,0.75,0],[0.75,1,0],[0.5,1,0],[0.25,1,0],[0,0.75,0],[0,0.5,0],[0,0.25,0]];shape=mxgraph.bpmn.task;whiteSpace=wrap;rectStyle=rounded;size=10;html=1;container=1;expand=0;collapsible=0;taskMarker=service;fillColor=#fff2cc;strokeColor=#d6b656;" vertex="1" parent="xjQJxT_6Q9AMiEBjkDGa-40">
          <mxGeometry x="1760" y="150" width="120" height="80" as="geometry" />
        </mxCell>
        <mxCell id="xjQJxT_6Q9AMiEBjkDGa-104" style="edgeStyle=orthogonalEdgeStyle;rounded=0;orthogonalLoop=1;jettySize=auto;html=1;dashed=1;" edge="1" parent="xjQJxT_6Q9AMiEBjkDGa-40" source="xjQJxT_6Q9AMiEBjkDGa-101" target="xjQJxT_6Q9AMiEBjkDGa-103">
          <mxGeometry relative="1" as="geometry" />
        </mxCell>
        <mxCell id="xjQJxT_6Q9AMiEBjkDGa-106" style="edgeStyle=orthogonalEdgeStyle;rounded=0;orthogonalLoop=1;jettySize=auto;html=1;entryX=0.5;entryY=1;entryDx=0;entryDy=0;entryPerimeter=0;" edge="1" parent="xjQJxT_6Q9AMiEBjkDGa-40" source="xjQJxT_6Q9AMiEBjkDGa-101" target="xjQJxT_6Q9AMiEBjkDGa-98">
          <mxGeometry relative="1" as="geometry" />
        </mxCell>
        <mxCell id="xjQJxT_6Q9AMiEBjkDGa-101" value="Mostrar mensaje en pantalla" style="points=[[0.25,0,0],[0.5,0,0],[0.75,0,0],[1,0.25,0],[1,0.5,0],[1,0.75,0],[0.75,1,0],[0.5,1,0],[0.25,1,0],[0,0.75,0],[0,0.5,0],[0,0.25,0]];shape=mxgraph.bpmn.task;whiteSpace=wrap;rectStyle=rounded;size=10;html=1;container=1;expand=0;collapsible=0;taskMarker=send;fillColor=#fff2cc;strokeColor=#d6b656;" vertex="1" parent="xjQJxT_6Q9AMiEBjkDGa-40">
          <mxGeometry x="1920" y="150" width="120" height="80" as="geometry" />
        </mxCell>
        <mxCell id="xjQJxT_6Q9AMiEBjkDGa-103" value="&lt;p data-pm-slice=&quot;1 1 [&amp;quot;table&amp;quot;,{&amp;quot;isNumberColumnEnabled&amp;quot;:false,&amp;quot;layout&amp;quot;:&amp;quot;wide&amp;quot;,&amp;quot;__autoSize&amp;quot;:false,&amp;quot;localId&amp;quot;:&amp;quot;922ff2e6-c428-4bf7-b1dc-2d80d05656cd&amp;quot;},&amp;quot;tableRow&amp;quot;,{},&amp;quot;tableCell&amp;quot;,{&amp;quot;colspan&amp;quot;:1,&amp;quot;rowspan&amp;quot;:1,&amp;quot;colwidth&amp;quot;:[471],&amp;quot;background&amp;quot;:null}]&quot;&gt;&lt;em&gt;“Sr. Usuario usted no tiene permisos para realizar esta acción.”&lt;/em&gt;&lt;/p&gt;" style="text;html=1;strokeColor=none;fillColor=none;align=center;verticalAlign=middle;whiteSpace=wrap;rounded=0;" vertex="1" parent="xjQJxT_6Q9AMiEBjkDGa-40">
          <mxGeometry x="1880" y="270" width="200" height="30" as="geometry" />
        </mxCell>
        <mxCell id="xjQJxT_6Q9AMiEBjkDGa-74" value="Aprobar" style="edgeStyle=orthogonalEdgeStyle;rounded=0;orthogonalLoop=1;jettySize=auto;html=1;entryX=0;entryY=0.5;entryDx=0;entryDy=0;entryPerimeter=0;" edge="1" parent="dWiLZQFSB1augytXqu6K-1" source="xjQJxT_6Q9AMiEBjkDGa-25" target="s6yNH1CqrP5aNpvl8j8D-119">
          <mxGeometry x="0.5948" relative="1" as="geometry">
            <mxPoint x="1270" y="860" as="targetPoint" />
            <mxPoint y="1" as="offset" />
          </mxGeometry>
        </mxCell>
        <mxCell id="xjQJxT_6Q9AMiEBjkDGa-39" style="edgeStyle=orthogonalEdgeStyle;rounded=0;orthogonalLoop=1;jettySize=auto;html=1;entryX=0.5;entryY=0;entryDx=0;entryDy=0;entryPerimeter=0;" edge="1" parent="dWiLZQFSB1augytXqu6K-1" source="xjQJxT_6Q9AMiEBjkDGa-34" target="xjQJxT_6Q9AMiEBjkDGa-33">
          <mxGeometry relative="1" as="geometry" />
        </mxCell>
        <mxCell id="xjQJxT_6Q9AMiEBjkDGa-85" style="edgeStyle=orthogonalEdgeStyle;rounded=0;orthogonalLoop=1;jettySize=auto;html=1;entryX=0;entryY=0.5;entryDx=0;entryDy=0;entryPerimeter=0;" edge="1" parent="dWiLZQFSB1augytXqu6K-1" source="xjQJxT_6Q9AMiEBjkDGa-84" target="xjQJxT_6Q9AMiEBjkDGa-33">
          <mxGeometry relative="1" as="geometry">
            <mxPoint x="2170" y="985" as="targetPoint" />
          </mxGeometry>
        </mxCell>
        <mxCell id="xjQJxT_6Q9AMiEBjkDGa-107" style="edgeStyle=orthogonalEdgeStyle;rounded=0;orthogonalLoop=1;jettySize=auto;html=1;entryX=0.5;entryY=1;entryDx=0;entryDy=0;entryPerimeter=0;" edge="1" parent="dWiLZQFSB1augytXqu6K-1" source="xjQJxT_6Q9AMiEBjkDGa-98" target="xjQJxT_6Q9AMiEBjkDGa-33">
          <mxGeometry relative="1" as="geometry" />
        </mxCell>
      </root>
    </mxGraphModel>
  </diagram>
</mxfile>
